<svg xmlns="http://www.w3.org/2000/svg" width="34.516" height="35.873" viewBox="0 0 34.516 35.873">
  <path id="Icon_awesome-angle-double-up" data-name="Icon awesome-angle-double-up" d="M12.449,14l9.563,9.563a1.681,1.681,0,0,1,0,2.384l-1.589,1.589a1.681,1.681,0,0,1-2.384,0L11.254,20.76,4.475,27.538a1.681,1.681,0,0,1-2.384,0L.5,25.949a1.681,1.681,0,0,1,0-2.384L10.058,14A1.683,1.683,0,0,1,12.449,14ZM10.058.5.5,10.058a1.681,1.681,0,0,0,0,2.384l1.589,1.589a1.681,1.681,0,0,0,2.384,0l6.778-6.778,6.778,6.778a1.681,1.681,0,0,0,2.384,0L22,12.442a1.681,1.681,0,0,0,0-2.384L12.435.5a1.672,1.672,0,0,0-2.377,0Z" transform="matrix(0.819, -0.574, 0.574, 0.819, 0, 12.91)" fill="#ecec0b"/>
</svg>
